<svg width="128" height="128" xmlns="http://www.w3.org/2000/svg" preserveAspectRatio="xMidYMid meet" class="iconify iconify--noto" role="img" aria-hidden="true">

 <g>
  <title>Layer 1</title>
  <path id="svg_1" fill="#4ce0e0" d="m108.91,99.71l-46.31,0l48.33,-79.77c0.44,-0.73 0.46,-1.64 0.04,-2.39c-0.42,-0.74 -1.21,-1.2 -2.06,-1.2l-27.85,0c-0.25,0 -0.49,0.05 -0.71,0.13l-61.26,0c-1.24,0 -2.24,1 -2.24,2.24l0,16.72c0,1.24 1.01,2.24 2.24,2.24l47.43,0l-49.44,79.75c-0.45,0.73 -0.47,1.65 -0.06,2.4c0.42,0.75 1.21,1.21 2.07,1.21l29.25,0c0.25,0 0.49,-0.05 0.72,-0.12l59.84,0c1.23,0 2.24,-1 2.24,-2.24l0,-16.72c0.01,-1.25 -1,-2.25 -2.23,-2.25z"/>
 </g>
</svg>